<svg width="33" height="32" viewBox="0 0 33 32" fill="none" xmlns="http://www.w3.org/2000/svg">
<path d="M21.2977 13.5786C21.5357 13.8165 21.7674 14.0482 21.9476 14.2605C22.1455 14.4937 22.3583 14.7895 22.4838 15.1758C22.6578 15.7114 22.6578 16.2883 22.4838 16.8239C22.3583 17.2102 22.1455 17.506 21.9476 17.7392C21.7674 17.9514 21.5357 18.1831 21.2977 18.421L18.7761 20.9426C18.2554 21.4633 17.4112 21.4633 16.8905 20.9426C16.3698 20.4219 16.3698 19.5777 16.8905 19.057L18.6143 17.3332H5.83333C5.09695 17.3332 4.5 16.7362 4.5 15.9998C4.5 15.2635 5.09695 14.6665 5.83333 14.6665H18.6143L16.8905 12.9426C16.3698 12.4219 16.3698 11.5777 16.8905 11.057C17.4112 10.5363 18.2554 10.5363 18.7761 11.057L21.2977 13.5786Z" fill="#437EF7"/>
<path d="M11.1667 6.93317C11.1667 5.4397 11.1667 4.69296 11.4573 4.12253C11.713 3.62076 12.1209 3.21282 12.6227 2.95715C13.1931 2.6665 13.9399 2.6665 15.4333 2.6665H22.9C24.3935 2.6665 25.1402 2.6665 25.7106 2.95715C26.2124 3.21282 26.6204 3.62076 26.876 4.12253C27.1667 4.69296 27.1667 5.4397 27.1667 6.93317V25.0665C27.1667 26.56 27.1667 27.3067 26.876 27.8771C26.6204 28.3789 26.2124 28.7869 25.7106 29.0425C25.1402 29.3332 24.3935 29.3332 22.9 29.3332H15.4333C13.9399 29.3332 13.1931 29.3332 12.6227 29.0425C12.1209 28.7869 11.713 28.3789 11.4573 27.8771C11.1667 27.3067 11.1667 26.56 11.1667 25.0665V19.9998H13.8333C13.8333 21.0235 14.2238 22.0472 15.0049 22.8283C16.567 24.3904 19.0996 24.3904 20.6617 22.8283L23.2149 20.2751C23.4289 20.0613 23.7282 19.7623 23.9805 19.465C24.2863 19.1047 24.7426 18.5016 25.02 17.6479C25.368 16.5768 25.368 15.4229 25.02 14.3518C24.7426 13.4981 24.2863 12.8949 23.9805 12.5347C23.7281 12.2374 23.4289 11.9384 23.2149 11.7246L20.6617 9.17141C19.0996 7.60931 16.567 7.60931 15.0049 9.17141C14.2238 9.95246 13.8333 10.9761 13.8333 11.9998H11.1667V6.93317Z" fill="#437EF7"/>
</svg>
